<svg xmlns="http://www.w3.org/2000/svg" viewBox="0 0 500 500"><g id="freepik--background-simple--inject-2"><path d="M455.15,405.11C478.14,372.8,484.8,328,481,290c-1.88-18.83-5.56-38.57-16.68-54.35-16.2-23-42.94-35.08-63.32-53.65-30-27.32-42.69-67.21-68.21-98C299.48,43.89,247,38.82,197.9,41.19,161,43,101.68,43.7,93,90c-9,48,8,93-28,116S10,277,21,318c9.28,34.58,53.76,40.7,63,76,11,42,75,98,137,94s98-45,124-43c30.13,2.31,62.23,2.22,87.56-16.61A103.94,103.94,0,0,0,455.15,405.11Z" style="fill:#50000D"></path><path d="M455.15,405.11C478.14,372.8,484.8,328,481,290c-1.88-18.83-5.56-38.57-16.68-54.35-16.2-23-42.94-35.08-63.32-53.65-30-27.32-42.69-67.21-68.21-98C299.48,43.89,247,38.82,197.9,41.19,161,43,101.68,43.7,93,90c-9,48,8,93-28,116S10,277,21,318c9.28,34.58,53.76,40.7,63,76,11,42,75,98,137,94s98-45,124-43c30.13,2.31,62.23,2.22,87.56-16.61A103.94,103.94,0,0,0,455.15,405.11Z" style="fill:#fff;opacity:0.7000000000000001"></path></g><g id="freepik--Form--inject-2"><rect x="58" y="34.78" width="222" height="292.34" style="opacity:0.2"></rect><rect x="51" y="26.78" width="222" height="292.34" style="fill:#fff;stroke:#263238;stroke-linecap:round;stroke-linejoin:round"></rect><polyline points="214.6 114.59 63 114.59 63 80.52 259.72 80.52 259.72 114.59 218.26 114.59" style="fill:none;stroke:#263238;stroke-linecap:round;stroke-linejoin:round"></polyline><polyline points="75.28 154.89 63 154.89 63 137.28 170.38 137.28" style="fill:none;stroke:#263238;stroke-linecap:round;stroke-linejoin:round"></polyline><polyline points="175.04 137.28 259.72 137.28 259.72 154.89 78.61 154.89" style="fill:none;stroke:#263238;stroke-linecap:round;stroke-linejoin:round"></polyline><polyline points="228.9 190.53 63 190.53 63 172.92 259.72 172.92 259.72 190.53 232.56 190.53" style="fill:none;stroke:#263238;stroke-linecap:round;stroke-linejoin:round"></polyline><polyline points="113.86 297.04 63 297.04 63 207.36 259.72 207.36 259.72 297.04 118.84 297.04" style="fill:none;stroke:#263238;stroke-linecap:round;stroke-linejoin:round"></polyline><rect x="63" y="207.36" width="196.72" height="15.67" style="fill:#d1d1d1;stroke:#263238;stroke-linecap:round;stroke-linejoin:round"></rect><polyline points="156.51 115.25 156.51 137.31 63 137.31 63 114.59" style="fill:none;stroke:#263238;stroke-linecap:round;stroke-linejoin:round"></polyline><rect x="63" y="92.61" width="196.72" height="9.89" style="fill:#d1d1d1;stroke:#263238;stroke-linecap:round;stroke-linejoin:round"></rect><line x1="194.41" y1="81.44" x2="194.41" y2="92.66" style="fill:none;stroke:#263238;stroke-linecap:round;stroke-linejoin:round"></line><rect x="206.3" y="83.32" width="13.4" height="6.55" style="fill:#d1d1d1;stroke:#263238;stroke-linecap:round;stroke-linejoin:round"></rect><line x1="163.1" y1="102.81" x2="163.1" y2="114.7" style="fill:none;stroke:#263238;stroke-linecap:round;stroke-linejoin:round"></line><line x1="204.23" y1="102.81" x2="204.23" y2="114.7" style="fill:none;stroke:#263238;stroke-linecap:round;stroke-linejoin:round"></line><line x1="99.19" y1="137.31" x2="99.19" y2="114.75" style="fill:none;stroke:#263238;stroke-linecap:round;stroke-linejoin:round"></line><line x1="122.09" y1="137.31" x2="122.09" y2="114.75" style="fill:none;stroke:#263238;stroke-linecap:round;stroke-linejoin:round"></line><line x1="147.06" y1="137.42" x2="147.06" y2="154.58" style="fill:none;stroke:#263238;stroke-linecap:round;stroke-linejoin:round"></line><line x1="193.96" y1="137.18" x2="193.96" y2="190.23" style="fill:none;stroke:#263238;stroke-linecap:round;stroke-linejoin:round"></line><polyline points="63 154.89 63 172.94 194.03 172.94" style="fill:none;stroke:#263238;stroke-linecap:round;stroke-linejoin:round"></polyline><line x1="112.35" y1="155.02" x2="112.35" y2="172.38" style="fill:none;stroke:#263238;stroke-linecap:round;stroke-linejoin:round"></line><line x1="248.19" y1="237.63" x2="259.82" y2="237.63" style="fill:none;stroke:#263238;stroke-linecap:round;stroke-linejoin:round"></line><line x1="63.27" y1="237.63" x2="243.86" y2="237.63" style="fill:none;stroke:#263238;stroke-linecap:round;stroke-linejoin:round"></line><line x1="63.27" y1="251.79" x2="259.82" y2="251.79" style="fill:none;stroke:#263238;stroke-linecap:round;stroke-linejoin:round"></line><line x1="123.83" y1="265.89" x2="259.82" y2="265.89" style="fill:none;stroke:#263238;stroke-linecap:round;stroke-linejoin:round"></line><line x1="63.27" y1="265.89" x2="118.84" y2="265.89" style="fill:none;stroke:#263238;stroke-linecap:round;stroke-linejoin:round"></line><rect x="94.05" y="241.53" width="6.65" height="6.65" style="fill:#d1d1d1;stroke:#263238;stroke-linecap:round;stroke-linejoin:round"></rect><rect x="132.2" y="241.53" width="6.65" height="6.65" style="fill:#d1d1d1;stroke:#263238;stroke-linecap:round;stroke-linejoin:round"></rect><rect x="105.85" y="255.1" width="6.65" height="6.65" style="fill:#d1d1d1;stroke:#263238;stroke-linecap:round;stroke-linejoin:round"></rect><rect x="142.32" y="255.1" width="6.65" height="6.65" style="fill:#d1d1d1;stroke:#263238;stroke-linecap:round;stroke-linejoin:round"></rect><rect x="177.18" y="255.1" width="6.65" height="6.65" style="fill:#d1d1d1;stroke:#263238;stroke-linecap:round;stroke-linejoin:round"></rect><rect x="212.58" y="255.1" width="6.65" height="6.65" style="fill:#d1d1d1;stroke:#263238;stroke-linecap:round;stroke-linejoin:round"></rect><line x1="102.77" y1="251.91" x2="102.77" y2="266.02" style="fill:none;stroke:#263238;stroke-linecap:round;stroke-linejoin:round"></line><line x1="138.44" y1="251.91" x2="138.44" y2="266.02" style="fill:none;stroke:#263238;stroke-linecap:round;stroke-linejoin:round"></line><line x1="174.1" y1="251.91" x2="174.1" y2="266.02" style="fill:none;stroke:#263238;stroke-linecap:round;stroke-linejoin:round"></line><line x1="209.76" y1="251.91" x2="209.76" y2="266.02" style="fill:none;stroke:#263238;stroke-linecap:round;stroke-linejoin:round"></line><line x1="63.27" y1="280.27" x2="259.82" y2="280.27" style="fill:none;stroke:#263238;stroke-linecap:round;stroke-linejoin:round"></line><rect x="81.45" y="269.48" width="6.65" height="6.65" style="fill:#d1d1d1;stroke:#263238;stroke-linecap:round;stroke-linejoin:round"></rect><rect x="142.32" y="269.48" width="6.65" height="6.65" style="fill:#d1d1d1;stroke:#263238;stroke-linecap:round;stroke-linejoin:round"></rect><rect x="177.18" y="269.48" width="6.65" height="6.65" style="fill:#d1d1d1;stroke:#263238;stroke-linecap:round;stroke-linejoin:round"></rect><rect x="222.1" y="269.48" width="6.65" height="6.65" style="fill:#d1d1d1;stroke:#263238;stroke-linecap:round;stroke-linejoin:round"></rect><line x1="78.37" y1="266.29" x2="78.37" y2="280.25" style="fill:none;stroke:#263238;stroke-linecap:round;stroke-linejoin:round"></line><line x1="138.44" y1="266.29" x2="138.44" y2="280.25" style="fill:none;stroke:#263238;stroke-linecap:round;stroke-linejoin:round"></line><line x1="174.1" y1="266.29" x2="174.1" y2="280.25" style="fill:none;stroke:#263238;stroke-linecap:round;stroke-linejoin:round"></line><line x1="219.28" y1="266.29" x2="219.28" y2="280.25" style="fill:none;stroke:#263238;stroke-linecap:round;stroke-linejoin:round"></line><path d="M142.18,50.4v2.42h-5.49V63.16H134V39.28h9.49V41.7h-6.82v8.7Z" style="fill:#263238"></path><path d="M145.42,45.05c0-3.65,1.8-6,5.45-6s5.49,2.36,5.49,6V57.39c0,3.62-1.8,6-5.49,6s-5.45-2.39-5.45-6ZM148,57.53c0,2.18.92,3.45,2.83,3.45s2.83-1.27,2.83-3.45V44.91c0-2.15-.88-3.45-2.83-3.45S148,42.76,148,44.91Z" style="fill:#263238"></path><path d="M164.21,39.28c3.75,0,5.32,1.91,5.32,5.46v1.94c0,2.63-.92,4.27-3,4.92,2.18.64,3,2.42,3,5v3.72a6,6,0,0,0,.48,2.87h-2.69a6.2,6.2,0,0,1-.45-2.9V56.51c0-2.7-1.26-3.55-3.48-3.55h-1.87v10.2h-2.66V39.28Zm-.68,11.26c2.11,0,3.37-.68,3.37-3.28V45c0-2.15-.78-3.28-2.76-3.28h-2.59v8.84Z" style="fill:#263238"></path><path d="M181.12,63.12h-2.55l-4-19v19h-2.32V39.28H176l3.92,19.07,3.79-19.07h3.71V63.16h-2.52V44Z" style="fill:#263238"></path><line x1="122.83" y1="74.85" x2="144.49" y2="74.85" style="fill:none;stroke:#263238;stroke-miterlimit:10"></line><line x1="63.74" y1="74.85" x2="119.18" y2="74.85" style="fill:none;stroke:#263238;stroke-miterlimit:10"></line><line x1="161.59" y1="74.85" x2="209.33" y2="74.85" style="fill:none;stroke:#263238;stroke-miterlimit:10"></line><line x1="222.3" y1="74.85" x2="260.02" y2="74.85" style="fill:none;stroke:#263238;stroke-miterlimit:10"></line></g><g id="freepik--Character--inject-2"><polygon points="230.94 412.55 305.16 409.5 345.69 458.76 245.6 467.48 230.94 412.55" style="fill:#fff;stroke:#263238;stroke-linecap:round;stroke-linejoin:round"></polygon><polygon points="245.93 446.47 326.16 440.88 331.45 447.54 248.16 453.87 245.93 446.47" style="fill:none;stroke:#263238;stroke-linecap:round;stroke-linejoin:round;stroke-width:0.5px"></polygon><polygon points="243.52 438.47 320.41 433.63 322.86 436.72 244.55 441.88 243.52 438.47" style="fill:none;stroke:#263238;stroke-linecap:round;stroke-linejoin:round;stroke-width:0.5px"></polygon><polygon points="241.57 432 315.73 427.73 318 430.59 242.51 435.13 241.57 432" style="fill:none;stroke:#263238;stroke-linecap:round;stroke-linejoin:round;stroke-width:0.5px"></polygon><polygon points="236.56 415.37 303.6 412.45 313.64 425.1 240.7 429.11 236.56 415.37" style="fill:none;stroke:#263238;stroke-linecap:round;stroke-linejoin:round;stroke-width:0.5px"></polygon><polygon points="239.92 426.52 311.75 422.72 313.64 425.1 240.7 429.11 239.92 426.52" style="fill:#d1d1d1;stroke:#263238;stroke-linecap:round;stroke-linejoin:round;stroke-width:0.5px"></polygon><polyline points="289.33 443.31 286.94 439.08 322.86 436.72 326.16 440.88" style="fill:none;stroke:#263238;stroke-linecap:round;stroke-linejoin:round;stroke-width:0.5px"></polyline><polygon points="246.7 449.02 327.99 443.18 329.53 445.11 247.35 451.17 246.7 449.02" style="fill:#d1d1d1;stroke:#263238;stroke-linecap:round;stroke-linejoin:round;stroke-width:0.5px"></polygon><line x1="277.06" y1="451.46" x2="275.93" y2="449.05" style="fill:none;stroke:#263238;stroke-linecap:round;stroke-linejoin:round;stroke-width:0.5px"></line><polygon points="265.26 450.46 271.09 450.03 271.71 451.44 265.84 451.89 265.26 450.46" style="fill:#d1d1d1;stroke:#263238;stroke-linecap:round;stroke-linejoin:round;stroke-width:0.5px"></polygon><line x1="288.02" y1="445.99" x2="286.71" y2="443.61" style="fill:none;stroke:#263238;stroke-linecap:round;stroke-linejoin:round;stroke-width:0.5px"></line><line x1="270.77" y1="447.23" x2="269.69" y2="444.79" style="fill:none;stroke:#263238;stroke-linecap:round;stroke-linejoin:round;stroke-width:0.5px"></line><line x1="309.23" y1="437.61" x2="312.2" y2="441.82" style="fill:none;stroke:#263238;stroke-linecap:round;stroke-linejoin:round;stroke-width:0.5px"></line><line x1="300.43" y1="438.19" x2="303.19" y2="442.45" style="fill:none;stroke:#263238;stroke-linecap:round;stroke-linejoin:round;stroke-width:0.5px"></line><line x1="290.67" y1="438.81" x2="288.82" y2="435.68" style="fill:none;stroke:#263238;stroke-linecap:round;stroke-linejoin:round;stroke-width:0.5px"></line><line x1="271.92" y1="440.09" x2="267.44" y2="430.56" style="fill:none;stroke:#263238;stroke-linecap:round;stroke-linejoin:round;stroke-width:0.5px"></line><polyline points="320.41 433.63 318 430.59 268.81 433.55" style="fill:none;stroke:#263238;stroke-linecap:round;stroke-linejoin:round;stroke-width:0.5px"></polyline><line x1="302.04" y1="434.77" x2="300.02" y2="431.77" style="fill:none;stroke:#263238;stroke-linecap:round;stroke-linejoin:round;stroke-width:0.5px"></line><line x1="309.96" y1="420.58" x2="239.18" y2="424.19" style="fill:none;stroke:#263238;stroke-linecap:round;stroke-linejoin:round;stroke-width:0.5px"></line><line x1="308.35" y1="418.56" x2="238.51" y2="421.99" style="fill:none;stroke:#263238;stroke-linecap:round;stroke-linejoin:round;stroke-width:0.5px"></line><line x1="306.8" y1="416.6" x2="237.87" y2="419.86" style="fill:none;stroke:#263238;stroke-linecap:round;stroke-linejoin:round;stroke-width:0.5px"></line><polygon points="296.05 419.7 298.32 419.59 299.01 420.55 296.72 420.66 296.05 419.7" style="fill:#d1d1d1;stroke:#263238;stroke-linecap:round;stroke-linejoin:round;stroke-width:0.5px"></polygon><polygon points="282.79 420.36 285.12 420.24 285.73 421.22 283.39 421.34 282.79 420.36" style="fill:#d1d1d1;stroke:#263238;stroke-linecap:round;stroke-linejoin:round;stroke-width:0.5px"></polygon><polygon points="290.67 417.96 292.94 417.85 293.59 418.79 291.31 418.9 290.67 417.96" style="fill:#d1d1d1;stroke:#263238;stroke-linecap:round;stroke-linejoin:round;stroke-width:0.5px"></polygon><polygon points="278.08 418.56 280.4 418.45 280.97 419.41 278.64 419.52 278.08 418.56" style="fill:#d1d1d1;stroke:#263238;stroke-linecap:round;stroke-linejoin:round;stroke-width:0.5px"></polygon><polygon points="265.78 419.15 268.15 419.04 268.64 420.01 266.26 420.12 265.78 419.15" style="fill:#d1d1d1;stroke:#263238;stroke-linecap:round;stroke-linejoin:round;stroke-width:0.5px"></polygon><polygon points="253.03 419.76 255.44 419.65 255.86 420.63 253.43 420.75 253.03 419.76" style="fill:#d1d1d1;stroke:#263238;stroke-linecap:round;stroke-linejoin:round;stroke-width:0.5px"></polygon><line x1="294.96" y1="419.2" x2="293.57" y2="417.21" style="fill:none;stroke:#263238;stroke-linecap:round;stroke-linejoin:round;stroke-width:0.5px"></line><line x1="282.61" y1="419.8" x2="281.37" y2="417.78" style="fill:none;stroke:#263238;stroke-linecap:round;stroke-linejoin:round;stroke-width:0.5px"></line><line x1="269.99" y1="420.42" x2="268.92" y2="418.37" style="fill:none;stroke:#263238;stroke-linecap:round;stroke-linejoin:round;stroke-width:0.5px"></line><line x1="257.09" y1="421.06" x2="256.19" y2="418.97" style="fill:none;stroke:#263238;stroke-linecap:round;stroke-linejoin:round;stroke-width:0.5px"></line><line x1="305.26" y1="414.66" x2="237.24" y2="417.75" style="fill:none;stroke:#263238;stroke-linecap:round;stroke-linejoin:round;stroke-width:0.5px"></line><polygon points="297.5 415.59 299.71 415.49 300.38 416.39 298.17 416.5 297.5 415.59" style="fill:#d1d1d1;stroke:#263238;stroke-linecap:round;stroke-linejoin:round;stroke-width:0.5px"></polygon><polygon points="276.9 416.54 279.18 416.43 279.74 417.36 277.44 417.47 276.9 416.54" style="fill:#d1d1d1;stroke:#263238;stroke-linecap:round;stroke-linejoin:round;stroke-width:0.5px"></polygon><polygon points="264.76 417.09 267.09 416.99 267.58 417.93 265.23 418.04 264.76 417.09" style="fill:#d1d1d1;stroke:#263238;stroke-linecap:round;stroke-linejoin:round;stroke-width:0.5px"></polygon><polygon points="248.75 417.83 251.15 417.72 251.53 418.68 249.12 418.79 248.75 417.83" style="fill:#d1d1d1;stroke:#263238;stroke-linecap:round;stroke-linejoin:round;stroke-width:0.5px"></polygon><line x1="301.74" y1="416.78" x2="300.31" y2="414.88" style="fill:none;stroke:#263238;stroke-linecap:round;stroke-linejoin:round;stroke-width:0.5px"></line><line x1="281.35" y1="417.75" x2="280.17" y2="415.8" style="fill:none;stroke:#263238;stroke-linecap:round;stroke-linejoin:round;stroke-width:0.5px"></line><line x1="268.9" y1="418.33" x2="267.87" y2="416.36" style="fill:none;stroke:#263238;stroke-linecap:round;stroke-linejoin:round;stroke-width:0.5px"></line><line x1="252.74" y1="419.1" x2="251.92" y2="417.09" style="fill:none;stroke:#263238;stroke-linecap:round;stroke-linejoin:round;stroke-width:0.5px"></line><path d="M303.33,456.6l-.33-.55,2.36-.19-1.42-2.31,1.13-.09,3.35,5.42-4.13.35-.33-.57,3-.25-1.23-2Z" style="fill:#263238"></path><path d="M302.66,458c.51.85,0,1.47-1.56,1.61s-2.74-.35-3.22-1.21l-1.6-2.84c-.46-.81,0-1.41,1.59-1.53s2.65.34,3.12,1.15Zm-2.81-2.76a1.62,1.62,0,0,0-1.67-.67c-.83.06-1.05.38-.77.87l1.65,2.89a1.64,1.64,0,0,0,1.71.71c.83-.07,1.06-.41.77-.91Z" style="fill:#263238"></path><path d="M295.17,460c-1.67.14-2.61-.26-3.05-1.1l-.25-.45c-.32-.61-.12-1,.7-1.25a2.11,2.11,0,0,1-1.93-1l-.45-.84a1.37,1.37,0,0,0-.55-.63l1.17-.1a1.48,1.48,0,0,1,.54.64l.46.85c.34.62,1,.77,2,.69l.82-.06-1.27-2.31,1.14-.1,3.07,5.5ZM294,457.33c-.92.08-1.39.28-1.07.89l.29.53c.27.51.76.74,1.64.67l1.15-.09-1.14-2.07Z" style="fill:#263238"></path><path d="M284.82,455.08l1.12-.09,4,4.25-2.28-4.4,1-.08,2.9,5.54-1.66.14-4-4.32.55,4.62-1.68.14-2.71-5.59,1.1-.09,2.2,4.46Z" style="fill:#263238"></path><line x1="332.08" y1="448.72" x2="299.11" y2="451.26" style="fill:none;stroke:#263238;stroke-miterlimit:10;stroke-width:0.5px"></line><line x1="291.88" y1="451.82" x2="271.2" y2="453.41" style="fill:none;stroke:#263238;stroke-miterlimit:10;stroke-width:0.5px"></line><line x1="265.45" y1="453.86" x2="248.41" y2="455.17" style="fill:none;stroke:#263238;stroke-miterlimit:10;stroke-width:0.5px"></line><path d="M300,255.33a136.14,136.14,0,0,0-20.67,8c-11,5.34-32.66,13.34-43,17.34S219.67,295,217.67,300,207,326.33,207,326.33,188.67,355,184,362s-11,16.67-11.33,25.67,4.66,14,16.33,14,16.67-4,22.33-10,24-35.34,26.67-38.67,10-16,10-16,3.67,33,3.67,43.33v24.34h105s5-36.67,6-39.67,8.66-24.67,8.66-24.67S399,385,403.62,391s17.81,18.64,30.73,13.58,10.27-18.92,3.27-35.58-19.29-45-19.29-46.35-5-21-25.33-36.34-40.33-19-45-21.33S328.33,255.33,300,255.33Z" style="fill:#50000D;stroke:#263238;stroke-linecap:round;stroke-linejoin:round"></path><path d="M234.67,315.33l13,20.34S237,324.67,230.33,323" style="fill:none;stroke:#263238;stroke-linecap:round;stroke-linejoin:round"></path><path d="M247.67,335.67,240,333s-7-4-12.67-2.33" style="fill:none;stroke:#263238;stroke-linecap:round;stroke-linejoin:round"></path><path d="M287.54,287c.75,5.49,2.48,12.31,6.46,17" style="fill:none;stroke:#263238;stroke-linecap:round;stroke-linejoin:round"></path><path d="M287,278s-.07,1.91.11,4.79" style="fill:none;stroke:#263238;stroke-linecap:round;stroke-linejoin:round"></path><path d="M290.65,308a30.06,30.06,0,0,0,3,2.68" style="fill:none;stroke:#263238;stroke-linecap:round;stroke-linejoin:round"></path><path d="M281.33,293a44.27,44.27,0,0,0,7.93,13.5" style="fill:none;stroke:#263238;stroke-linecap:round;stroke-linejoin:round"></path><path d="M347.17,367.48c-2.27,3.69-4.42,6.67-6.17,8.19" style="fill:none;stroke:#263238;stroke-linecap:round;stroke-linejoin:round"></path><path d="M364,334.33s-7.75,17.52-15,30" style="fill:none;stroke:#263238;stroke-linecap:round;stroke-linejoin:round"></path><path d="M329.92,378.45c-1,1.21-1.77,2.22-2.25,2.88" style="fill:none;stroke:#263238;stroke-linecap:round;stroke-linejoin:round"></path><path d="M342.67,363.33S336.53,370.47,332,376" style="fill:none;stroke:#263238;stroke-linecap:round;stroke-linejoin:round"></path><path d="M371.33,340.33S386,317,386.67,315" style="fill:none;stroke:#263238;stroke-linecap:round;stroke-linejoin:round"></path><path d="M382.55,331.34c4.36-3.53,10.91-8,17.45-9.34" style="fill:none;stroke:#263238;stroke-linecap:round;stroke-linejoin:round"></path><path d="M377.33,336s1.19-1.23,3.19-3" style="fill:none;stroke:#263238;stroke-linecap:round;stroke-linejoin:round"></path><path d="M395.67,318.33a81,81,0,0,0-12,7.67" style="fill:none;stroke:#263238;stroke-linecap:round;stroke-linejoin:round"></path><path d="M401.67,367.67a18.84,18.84,0,0,1,18,1" style="fill:none;stroke:#263238;stroke-linecap:round;stroke-linejoin:round"></path><path d="M404.67,363.33s11.66-2.33,20.33,3" style="fill:none;stroke:#263238;stroke-linecap:round;stroke-linejoin:round"></path><path d="M186,367.33a18.63,18.63,0,0,1,15-4.66" style="fill:none;stroke:#263238;stroke-linecap:round;stroke-linejoin:round"></path><path d="M206.64,363.45a28.5,28.5,0,0,1,2.36,1.88" style="fill:none;stroke:#263238;stroke-linecap:round;stroke-linejoin:round"></path><path d="M197.67,359.67a16.24,16.24,0,0,1,5.47,1.7" style="fill:none;stroke:#263238;stroke-linecap:round;stroke-linejoin:round"></path><path d="M297.67,264s-3,12.67-2,22,11.33,23.67,20,27,24.66-6.33,30.33-12,6-23.67,6-23.67-8.64-18.66-27-24S297.67,264,297.67,264Z" style="fill:#ababab;stroke:#263238;stroke-linecap:round;stroke-linejoin:round"></path><path d="M366.6,261.39s1.74,5.21-1.61,11.8-9.82,12.16-11.56,11.59,5.41-24.42,5.41-24.42S363.59,257.69,366.6,261.39Z" style="fill:#ababab;stroke:#263238;stroke-linecap:round;stroke-linejoin:round"></path><path d="M293.06,242.35s-3.29,4.39-2.2,11.71,5.49,14.63,7.32,14.63,2.56-24.87,2.56-24.87S297.08,239.79,293.06,242.35Z" style="fill:#ababab;stroke:#263238;stroke-linecap:round;stroke-linejoin:round"></path><path d="M298.55,251.86s-2.56,22.32.36,31.47,8.78,23.41,17.93,27.07,30-12.07,33.29-18.29,12.44-32.56,12.44-32.56a23.92,23.92,0,0,0,3.3-22.69c-4.76-13.17-30.37-21.22-41-20.85s-21.22,9.15-21.95,16.1S298.55,251.86,298.55,251.86Z" style="fill:#ababab;stroke:#263238;stroke-linecap:round;stroke-linejoin:round"></path><path d="M322.33,265.4s-8.05-9.88-15.37-6.58" style="fill:none;stroke:#263238;stroke-linecap:round;stroke-linejoin:round;stroke-width:2px"></path><path d="M335.13,269.79s11-2.56,16.1,2.2" style="fill:none;stroke:#263238;stroke-linecap:round;stroke-linejoin:round;stroke-width:2px"></path><path d="M308.06,267.6s2.35,7,11.89,6.19" style="fill:none;stroke:#263238;stroke-linecap:round;stroke-linejoin:round"></path><path d="M334.4,277.47s2.2,4.76,12.44,2.93" style="fill:none;stroke:#263238;stroke-linecap:round;stroke-linejoin:round"></path><path d="M316.37,284.13a6.4,6.4,0,0,0,.6,4.37c1.19,1.79,4.17,4.37,6.36,4.37s6.76-.79,7.95-2a14.31,14.31,0,0,0,2-2.59" style="fill:none;stroke:#263238;stroke-linecap:round;stroke-linejoin:round"></path><path d="M311.4,290.69s5,5.76,9.15,7.15,11.92-1,14.11-1.79" style="fill:none;stroke:#263238;stroke-linecap:round;stroke-linejoin:round"></path><path d="M383.86,226.68c-.34-2.4,1.37-5.83,1.71-7.88s-2.4-5.83-4.79-8.91a13.78,13.78,0,0,1-2.75-8.56c0-2.06-2.39-3.77-4.45-5.14a38.24,38.24,0,0,1-6.85-5.83c-1.37-1.71-7.19-1.37-8.22-1.37s-5.48-3.76-8.22-5.13-8.22,1-8.22,1-6.51-3.08-7.88-3.08-7.2,2.4-7.2,2.4a30.57,30.57,0,0,1-6,1.87,6.42,6.42,0,0,0-1.14-.19c-.77-1-7.62,3.11-7.62,3.11l-6.16,1-2.29,3.71c-2.19.24-7.32,1.06-7.68,3.57-.46,3.2,0,4.57-1.37,6.39s-6.39,1.37-5,5.48,4.56,7.31.45,9.6-6.39,6.39-4.11,8.67,4.11,5.48,3.66,7.31-.92,5.94.91,6.85a32.51,32.51,0,0,1,4.57,3.2l2.28,5,1.37,3.2s2.28-7.31,4.11-8.22,0,3.2,3.66,3.2,7.3-17.36,10-17.82,11,15.08,19.19,15.08S354.13,238,358.25,238s.91,17.35.91,21,.91,7.3.91,8.68,4.57-6.4,7.77-8.23c.88-.5,1.94-1.11,3.05-1.81,0,.16-.05.25-.05.25s11.31-7.2,12.68-9.59.34-4.46.34-6.51,1.37-3.77,1.71-6.85S384.2,229.07,383.86,226.68Z" style="fill:#263238;stroke:#263238;stroke-linecap:round;stroke-linejoin:round"></path><line x1="467.59" y1="404.59" x2="27" y2="404.59" style="fill:none;stroke:#263238;stroke-linecap:round;stroke-linejoin:round"></line><path d="M419.69,375.44s-12.49-4.59-21.47-1-30.06,12.12-44.41,14.81A187.14,187.14,0,0,1,313,391.94c-12.12-.45-18.85,1.35-21.54,3.59s-12.56,14.8-11.67,16.15,1.89,1.86,6.29.9c1.75-.39,6.73-5.83,6.73-5.83l9-4s-9.42,10.32-8.08,11.66,3.59-.45,5.39-1.79,5.38-4.49,5.38-4.49l8.08-3.59S304,410.33,304,413s2.09,1.1,5.65-.32a41,41,0,0,0,4.81-3.55l6.75-1.9a29.67,29.67,0,0,0,14.13,3.36,21.63,21.63,0,0,0,14-5.22s31.41,4.49,47.11,3.14,35.44.45,43.52-5.38-2.24-21.09-3.14-22.44" style="fill:#ababab;stroke:#263238;stroke-linecap:round;stroke-linejoin:round"></path><path d="M281.87,412.92s1.67-4.81,3.34-6.9,9.4-7.1,12.12-8.56a30.63,30.63,0,0,1,3.34-1.67" style="fill:none;stroke:#263238;stroke-linecap:round;stroke-linejoin:round"></path><line x1="301.76" y1="402.71" x2="309.65" y2="397.46" style="fill:none;stroke:#263238;stroke-linecap:round;stroke-linejoin:round"></line><line x1="312.53" y1="404.5" x2="319.89" y2="400.8" style="fill:none;stroke:#263238;stroke-linecap:round;stroke-linejoin:round"></line><path d="M419.69,375.44c-6.67-1.59-16.09-3.15-21.47-1-8,3.19-25.48,10.26-39.35,13.69a12.38,12.38,0,0,1,3.21,7.87,30.6,30.6,0,0,1-1.48,10.8c10.57,1.19,26.17,2.57,35.83,1.74,15.7-1.35,35.44.45,43.52-5.38s-2.24-21.09-3.14-22.44" style="fill:#50000D;stroke:#263238;stroke-linecap:round;stroke-linejoin:round"></path><path d="M182.8,374.09c.84-2.27,7-7.7,15.29-6.25s17.7,10.66,23.08,17.74,9.67,9,9.67,9l-6.34,19.37s-3.9-.94-11.22-2.8-23.7-4.28-31.23-6.62-10.74-10.44-9.1-18a45.08,45.08,0,0,1,4.25-12.06" style="fill:#50000D;stroke:#263238;stroke-linecap:round;stroke-linejoin:round"></path><path d="M221.17,385.58c-.57-.74-1.18-1.5-1.82-2.28-4.69,1.87-10.64,5.32-13.79,11.4S202.39,405.8,203,409c4,.76,7.69,1.48,10.26,2.13,7.32,1.86,11.22,2.8,11.22,2.8l6.34-19.37S226.54,392.67,221.17,385.58Z" style="fill:#ababab;stroke:#263238;stroke-linecap:round;stroke-linejoin:round"></path><path d="M218.58,404.5c-.42,3-1.34,6.43,3,8.33s8.66,6.59,11.39,7.69A41.06,41.06,0,0,0,243.24,423c2.78.18,6.21,1.09,11.66-.43s5.3-2.92,5.3-2.92,3.4.13,5.08-.7.5-2.91-1.54-3.73-4.54-1.92-4.54-1.92,3.1-2.86,2.32-3.57l-.77-.71s3.58.42,3.89-.72-1.94-6.18-2.84-10.42-2.79-3.67-6.24-4.35-8.15.19-14.35-1.13-15.18.9-18.73,1.84" style="fill:#ababab;stroke:#263238;stroke-linecap:round;stroke-linejoin:round"></path><path d="M242.79,375.65l5.66,20,4.52,2.15-6.7-23.16a1.8,1.8,0,0,0-2.44-1.16h0A1.81,1.81,0,0,0,242.79,375.65Z" style="fill:#263238"></path><path d="M246,394.12s9.9,5.28,10.58,5.55c.47.19,4.88,7.56,6.28,11.1.65,1.62-.08,2.55-1.6,3.39l-2.05-.83-12.31-7.75-4.51-2.15" style="fill:#ababab;stroke:#263238;stroke-linecap:round;stroke-linejoin:round"></path><path d="M239.09,411.37s9.64,5.73,11.67,6.78,9.44,1.53,9.44,1.53" style="fill:none;stroke:#263238;stroke-linecap:round;stroke-linejoin:round"></path><path d="M235.48,417s8.09,4.46,9.68,5,5,1.48,5,1.48" style="fill:none;stroke:#263238;stroke-linecap:round;stroke-linejoin:round"></path></g><g id="freepik--Device--inject-2"><polygon points="172.84 454.17 209.76 420.21 128.42 414.96 172.84 454.17" style="fill:#ccc;stroke:#263238;stroke-linecap:round;stroke-linejoin:round"></polygon><polygon points="171.28 447.33 187.9 431.58 168.65 430.42 171.28 447.33" style="fill:#263238;stroke:#263238;stroke-linecap:round;stroke-linejoin:round"></polygon><polygon points="58.08 358.8 179.85 364.19 172.84 454.17 50 448.24 58.08 358.8" style="fill:#a6a6a6;stroke:#263238;stroke-linecap:round;stroke-linejoin:round"></polygon><path d="M50.54,442.25c7.2-1.06,19.35-3.89,39.87-10.53,48.85-15.81,55-60,89.44-67.53L58.08,358.8Z" style="fill:#263238;stroke:#263238;stroke-linecap:round;stroke-linejoin:round"></path><ellipse cx="114.12" cy="404.42" rx="9.34" ry="7.18" style="fill:#fff;stroke:#263238;stroke-linecap:round;stroke-linejoin:round"></ellipse></g></svg>